<?xml version="1.0" encoding="utf-8"?>
<!-- Generator: Adobe Illustrator 21.1.0, SVG Export Plug-In . SVG Version: 6.00 Build 0)  -->
<svg version="1.1" id="Layer_1" xmlns="http://www.w3.org/2000/svg" xmlns:xlink="http://www.w3.org/1999/xlink" x="0px" y="0px"
	 viewBox="0 0 148.2 148.2" style="enable-background:new 0 0 148.2 148.2;" xml:space="preserve">
<style type="text/css">
	.st0{opacity:0.1;fill:#FFFFFF;}
	.st1{fill:#536DA8;}
</style>
<circle class="st0" cx="74.1" cy="74.1" r="71.6"/>
<title>fb</title>
<g id="Layer_2">
	<g id="Layer_1-2">
		<path class="st1" d="M87.6,74.1h-8.8v31.5H65.7V74.1h-6.2V63h6.2v-7.2c0-5.2,2.4-13.2,13.2-13.2h9.7v10.8h-7c-1.2,0-2.8,0.6-2.8,3
			V63h10L87.6,74.1z"/>
		<path class="st1" d="M74.1,148.2C33.2,148.2,0,115,0,74.1S33.2,0,74.1,0s74.1,33.2,74.1,74.1l0,0C148.1,115,115,148.1,74.1,148.2z
			 M74.1,3.9C35.3,3.9,3.9,35.3,3.9,74.1s31.4,70.1,70.1,70.1s70.1-31.4,70.1-70.1l0,0C144.2,35.4,112.8,4,74.1,3.9z"/>
	</g>
</g>
</svg>
