<?xml version="1.0" encoding="utf-8"?>
<!-- Generator: Adobe Illustrator 21.1.0, SVG Export Plug-In . SVG Version: 6.00 Build 0)  -->
<svg version="1.1" id="Layer_1" xmlns="http://www.w3.org/2000/svg" xmlns:xlink="http://www.w3.org/1999/xlink" x="0px" y="0px"
	 viewBox="0 0 148.2 148.2" style="enable-background:new 0 0 148.2 148.2;" xml:space="preserve">
<style type="text/css">
	.st0{opacity:0.1;fill:#FFFFFF;}
	.st1{fill:#F04E42;}
</style>
<circle class="st0" cx="74.1" cy="74.1" r="71.6"/>
<title>gp</title>
<g id="Layer_2">
	<g id="Layer_1-2">
		<path class="st1" d="M89,74.1c0,17.4-14.1,31.5-31.5,31.5S25.9,91.5,25.9,74.1c0-17.4,14.1-31.5,31.5-31.5c7,0,13.7,2.3,19.2,6.5
			l-7.3,9.5c-8.5-6.6-20.8-5-27.4,3.5S37,83,45.5,89.6c3.4,2.6,7.6,4.1,11.9,4.1c8.5,0,16-5.5,18.6-13.5H57.5v-12H89V74.1z
			 M122.2,78h-9v9h-7.9v-9h-9v-7.8h9v-9h7.9v9h9V78z"/>
		<path class="st1" d="M74.1,148.2C33.2,148.2,0,115,0,74.1S33.2,0,74.1,0s74.1,33.2,74.1,74.1l0,0C148.1,115,115,148.1,74.1,148.2z
			 M74.1,3.9C35.3,3.9,3.9,35.3,3.9,74.1s31.4,70.1,70.1,70.1s70.1-31.4,70.1-70.1l0,0C144.2,35.4,112.8,4,74.1,3.9z"/>
	</g>
</g>
</svg>
