<svg xmlns="http://www.w3.org/2000/svg" viewBox="0 0 237.04 301.45"><defs><style>.cls-1,.cls-5{fill:none;stroke-linecap:round;stroke-miterlimit:10;stroke-width:5px;}.cls-1{stroke:#e6e7e8;}.cls-2{fill:#336b9e;}.cls-3{opacity:0.1;}.cls-4{fill:#299fda;}.cls-5{stroke:#231f20;}</style></defs><title>logo_app</title><g id="Layer_2" data-name="Layer 2"><g id="Layer_2-2" data-name="Layer 2"><path class="cls-1" d="M41,41"/><path class="cls-1" d="M41,196.13"/><path class="cls-2" d="M118.52,148a29.43,29.43,0,1,1,29.42-29.43A29.45,29.45,0,0,1,118.52,148Z"/><g class="cls-3"><path class="cls-4" d="M118.52,237.12a117.72,117.72,0,0,1-83.81-34.73,8.85,8.85,0,1,1,12.52-12.52A100.83,100.83,0,1,0,118.52,17.71,100.14,100.14,0,0,0,47.24,47.25,8.85,8.85,0,1,1,34.72,34.73a118.54,118.54,0,1,1,83.81,202.39Z"/></g><path class="cls-2" d="M118.52,237.12A118.56,118.56,0,1,1,202.33,34.73a8.85,8.85,0,1,1-12.52,12.52A100.79,100.79,0,0,0,18.12,109.7h9a8.86,8.86,0,0,1,0,17.71h-9a100.79,100.79,0,0,0,171.69,62.45,8.85,8.85,0,1,1,12.52,12.52A117.72,117.72,0,0,1,118.52,237.12Z"/><path class="cls-5" d="M196.07,196.13"/><path class="cls-5" d="M170.22,170.27"/><path class="cls-5" d="M170.22,66.84"/><path class="cls-5" d="M196.07,41"/><path class="cls-5" d="M170.22,66.84"/><path class="cls-5" d="M170.22,170.27"/><g class="cls-3"><path class="cls-4" d="M118.52,196A76.88,76.88,0,0,1,63.79,173.3a8.86,8.86,0,1,1,12.52-12.53,59.71,59.71,0,1,0,0-84.44A8.85,8.85,0,0,1,63.79,63.81,77.41,77.41,0,1,1,118.52,196Z"/></g><path class="cls-2" d="M118.52,196A77.42,77.42,0,1,1,173.25,63.81a8.86,8.86,0,1,1-12.52,12.53,59.71,59.71,0,1,0,0,84.44,8.85,8.85,0,0,1,12.52,12.53A76.88,76.88,0,0,1,118.52,196Z"/><path class="cls-2" d="M95.15,268.22H86v8.51H96.2v2.56H82.94V255.68H95.68v2.56H86v7.46h9.17Z"/><path class="cls-2" d="M124.06,278.51a15.11,15.11,0,0,1-6.23,1.12c-6.65,0-11.66-4.2-11.66-11.94,0-7.39,5-12.39,12.32-12.39a12.65,12.65,0,0,1,5.6,1l-.73,2.49a11.1,11.1,0,0,0-4.76-1c-5.53,0-9.21,3.54-9.21,9.73,0,5.78,3.33,9.49,9.07,9.49a12.18,12.18,0,0,0,5-1Z"/><path class="cls-2" d="M155.46,267.24c0,8.12-4.94,12.43-11,12.43-6.23,0-10.61-4.83-10.61-12,0-7.49,4.66-12.39,11-12.39S155.46,260.24,155.46,267.24Zm-18.31.38c0,5,2.73,9.56,7.53,9.56s7.56-4.45,7.56-9.8c0-4.69-2.45-9.59-7.53-9.59S137.15,262.44,137.15,267.62Z"/><path class="cls-2" d="M32.33,293.22H28.13v3.89h4.67v1.17H26.74V287.49h5.83v1.17H28.13v3.41h4.19Z"/><path class="cls-2" d="M34.56,286.91H36v11.36H34.56Z"/><path class="cls-2" d="M39.12,294.66a2.48,2.48,0,0,0,2.66,2.69,5.1,5.1,0,0,0,2.15-.4l.24,1a6.26,6.26,0,0,1-2.58.48,3.6,3.6,0,0,1-3.81-3.91c0-2.34,1.38-4.18,3.63-4.18,2.53,0,3.2,2.22,3.2,3.65a5.31,5.31,0,0,1,0,.66Zm4.13-1a2,2,0,0,0-2-2.29,2.33,2.33,0,0,0-2.16,2.29Z"/><path class="cls-2" d="M51.88,298a5.18,5.18,0,0,1-2.23.45,3.68,3.68,0,0,1-3.86-4A3.94,3.94,0,0,1,50,290.37a4.7,4.7,0,0,1,2,.4l-.32,1.09a3.27,3.27,0,0,0-1.63-.37,2.92,2.92,0,0,0,0,5.83,4,4,0,0,0,1.73-.38Z"/><path class="cls-2" d="M55.43,288.31v2.22h2v1.07h-2v4.18c0,1,.27,1.5,1.06,1.5a3.09,3.09,0,0,0,.82-.1l.06,1.06a3.44,3.44,0,0,1-1.25.19,2,2,0,0,1-1.52-.59,2.87,2.87,0,0,1-.54-2V291.6h-1.2v-1.07h1.2v-1.86Z"/><path class="cls-2" d="M59,292.95c0-.91,0-1.7-.06-2.42H60.2l0,1.52h.06a2.32,2.32,0,0,1,2.14-1.7,1.52,1.52,0,0,1,.4,0v1.33a2.11,2.11,0,0,0-.48,0,2,2,0,0,0-1.89,1.81,4,4,0,0,0-.06.66v4.13H59Z"/><path class="cls-2" d="M71.11,294.34a3.79,3.79,0,0,1-3.86,4.11,3.68,3.68,0,0,1-3.71-4,3.78,3.78,0,0,1,3.84-4.11A3.67,3.67,0,0,1,71.11,294.34Zm-6.15.08c0,1.7,1,3,2.35,3s2.35-1.26,2.35-3c0-1.31-.66-3-2.32-3S65,292.95,65,294.42Z"/><path class="cls-2" d="M72.88,292.63c0-.8,0-1.46-.06-2.1h1.25l.08,1.28h0a2.85,2.85,0,0,1,2.56-1.46c1.07,0,2.74.64,2.74,3.3v4.63H78.07v-4.47c0-1.25-.46-2.29-1.79-2.29A2,2,0,0,0,74.39,293a2,2,0,0,0-.1.66v4.66H72.88Z"/><path class="cls-2" d="M83.33,288.35a.87.87,0,0,1-1.75,0,.86.86,0,0,1,.88-.88A.84.84,0,0,1,83.33,288.35Zm-1.57,9.92v-7.75h1.41v7.75Z"/><path class="cls-2" d="M91,298a5.18,5.18,0,0,1-2.23.45,3.68,3.68,0,0,1-3.86-4,3.94,3.94,0,0,1,4.16-4.11,4.7,4.7,0,0,1,2,.4l-.32,1.09a3.27,3.27,0,0,0-1.63-.37,2.92,2.92,0,0,0,0,5.83,4,4,0,0,0,1.73-.38Z"/><path class="cls-2" d="M103.65,297.92a6.9,6.9,0,0,1-2.85.51c-3,0-5.33-1.92-5.33-5.46a5.37,5.37,0,0,1,5.63-5.67,5.78,5.78,0,0,1,2.56.48l-.34,1.14a5.08,5.08,0,0,0-2.18-.45c-2.53,0-4.21,1.62-4.21,4.45,0,2.64,1.52,4.34,4.15,4.34a5.57,5.57,0,0,0,2.27-.45Z"/><path class="cls-2" d="M111.64,296.16c0,.8,0,1.5.06,2.11h-1.25l-.08-1.26h0a2.92,2.92,0,0,1-2.56,1.44c-1.22,0-2.67-.67-2.67-3.39v-4.53h1.41v4.29c0,1.47.45,2.46,1.73,2.46A2,2,0,0,0,110.1,296a2.07,2.07,0,0,0,.13-.72v-4.75h1.41Z"/><path class="cls-2" d="M113.78,296.84a3.7,3.7,0,0,0,1.86.56c1,0,1.5-.51,1.5-1.15s-.4-1-1.44-1.42c-1.39-.5-2-1.26-2-2.19a2.39,2.39,0,0,1,2.67-2.27,3.87,3.87,0,0,1,1.9.48l-.35,1a3,3,0,0,0-1.58-.45c-.83,0-1.3.48-1.3,1.06s.46.93,1.47,1.31c1.34.51,2,1.18,2,2.34,0,1.36-1.06,2.32-2.9,2.32a4.41,4.41,0,0,1-2.18-.53Z"/><path class="cls-2" d="M122,288.31v2.22h2v1.07h-2v4.18c0,1,.27,1.5,1.06,1.5a3.1,3.1,0,0,0,.82-.1l.06,1.06a3.44,3.44,0,0,1-1.25.19,2,2,0,0,1-1.52-.59,2.87,2.87,0,0,1-.54-2V291.6h-1.2v-1.07h1.2v-1.86Z"/><path class="cls-2" d="M132.52,294.34a3.79,3.79,0,0,1-3.86,4.11,3.68,3.68,0,0,1-3.71-4,3.78,3.78,0,0,1,3.84-4.11A3.67,3.67,0,0,1,132.52,294.34Zm-6.15.08c0,1.7,1,3,2.35,3s2.35-1.26,2.35-3c0-1.31-.66-3-2.32-3S126.37,292.95,126.37,294.42Z"/><path class="cls-2" d="M134.29,292.63c0-.8,0-1.46-.06-2.1h1.23l.06,1.25h0a2.67,2.67,0,0,1,2.43-1.42,2.29,2.29,0,0,1,2.19,1.55h0a3.19,3.19,0,0,1,.87-1,2.64,2.64,0,0,1,1.71-.54c1,0,2.54.67,2.54,3.36v4.56H144v-4.39c0-1.49-.54-2.38-1.68-2.38a1.82,1.82,0,0,0-1.67,1.28,2.34,2.34,0,0,0-.11.7v4.79h-1.38v-4.64c0-1.23-.54-2.13-1.62-2.13a2.1,2.1,0,0,0-1.86,2.1v4.67h-1.38Z"/><path class="cls-2" d="M148.42,294.66a2.48,2.48,0,0,0,2.66,2.69,5.1,5.1,0,0,0,2.15-.4l.24,1a6.27,6.27,0,0,1-2.58.48,3.6,3.6,0,0,1-3.81-3.91c0-2.34,1.38-4.18,3.63-4.18,2.53,0,3.2,2.22,3.2,3.65a5.17,5.17,0,0,1,0,.66Zm4.13-1a2,2,0,0,0-2-2.29,2.33,2.33,0,0,0-2.16,2.29Z"/><path class="cls-2" d="M155.65,292.95c0-.91,0-1.7-.06-2.42h1.23l0,1.52h.06a2.32,2.32,0,0,1,2.14-1.7,1.52,1.52,0,0,1,.4,0v1.33a2.11,2.11,0,0,0-.48,0,2,2,0,0,0-1.89,1.81,3.94,3.94,0,0,0-.06.66v4.13h-1.39Z"/><path class="cls-2" d="M173.54,292.77c0,3.71-2.26,5.68-5,5.68s-4.85-2.21-4.85-5.47c0-3.43,2.13-5.67,5-5.67S173.54,289.57,173.54,292.77Zm-8.37.18c0,2.3,1.25,4.37,3.44,4.37s3.46-2,3.46-4.48c0-2.14-1.12-4.39-3.44-4.39S165.17,290.58,165.17,292.95Z"/><path class="cls-2" d="M181.83,296.16c0,.8,0,1.5.06,2.11h-1.25l-.08-1.26h0a2.92,2.92,0,0,1-2.56,1.44c-1.22,0-2.67-.67-2.67-3.39v-4.53h1.41v4.29c0,1.47.45,2.46,1.73,2.46a2,2,0,0,0,1.86-1.28,2.07,2.07,0,0,0,.13-.72v-4.75h1.41Z"/><path class="cls-2" d="M185.86,288.31v2.22h2v1.07h-2v4.18c0,1,.27,1.5,1.06,1.5a3.1,3.1,0,0,0,.82-.1l.06,1.06a3.44,3.44,0,0,1-1.25.19,2,2,0,0,1-1.52-.59,2.87,2.87,0,0,1-.54-2V291.6h-1.2v-1.07h1.2v-1.86Z"/><path class="cls-2" d="M189.46,293.06c0-1,0-1.79-.06-2.53h1.26l.06,1.33h0a3,3,0,0,1,2.75-1.5c1.87,0,3.28,1.58,3.28,3.94,0,2.79-1.7,4.16-3.52,4.16a2.72,2.72,0,0,1-2.38-1.22h0v4.21h-1.39Zm1.39,2.06a3.15,3.15,0,0,0,.06.58,2.17,2.17,0,0,0,2.11,1.65c1.49,0,2.35-1.22,2.35-3,0-1.55-.82-2.88-2.3-2.88a2.25,2.25,0,0,0-2.13,1.75,2.29,2.29,0,0,0-.1.58Z"/><path class="cls-2" d="M205,296.16c0,.8,0,1.5.06,2.11h-1.25l-.08-1.26h0a2.92,2.92,0,0,1-2.56,1.44c-1.22,0-2.67-.67-2.67-3.39v-4.53h1.41v4.29c0,1.47.45,2.46,1.73,2.46a2,2,0,0,0,1.86-1.28,2.07,2.07,0,0,0,.13-.72v-4.75H205Z"/><path class="cls-2" d="M209.07,288.31v2.22h2v1.07h-2v4.18c0,1,.27,1.5,1.06,1.5a3.1,3.1,0,0,0,.82-.1l.06,1.06a3.44,3.44,0,0,1-1.25.19,2,2,0,0,1-1.52-.59,2.87,2.87,0,0,1-.54-2V291.6h-1.2v-1.07h1.2v-1.86Z"/></g></g></svg>