<svg xmlns="http://www.w3.org/2000/svg" viewBox="0 0 237.04 237.12"><defs><style>.cls-1,.cls-5{fill:none;stroke-linecap:round;stroke-miterlimit:10;stroke-width:5px;}.cls-1{stroke:#e6e7e8;}.cls-2{fill:#336b9e;}.cls-3{opacity:0.1;}.cls-4{fill:#299fda;}.cls-5{stroke:#231f20;}</style></defs><title>logo_app_small</title><g id="Layer_2" data-name="Layer 2"><g id="Layer_2-2" data-name="Layer 2"><path class="cls-1" d="M41,41"/><path class="cls-1" d="M41,196.13"/><path class="cls-2" d="M118.52,148a29.43,29.43,0,1,1,29.42-29.43A29.45,29.45,0,0,1,118.52,148Z"/><g class="cls-3"><path class="cls-4" d="M118.52,237.12a117.72,117.72,0,0,1-83.81-34.73,8.85,8.85,0,1,1,12.52-12.52A100.83,100.83,0,1,0,118.52,17.71,100.14,100.14,0,0,0,47.24,47.25,8.85,8.85,0,1,1,34.72,34.73a118.54,118.54,0,1,1,83.81,202.39Z"/></g><path class="cls-2" d="M118.52,237.12A118.56,118.56,0,1,1,202.33,34.73a8.85,8.85,0,1,1-12.52,12.52A100.79,100.79,0,0,0,18.12,109.7h9a8.86,8.86,0,0,1,0,17.71h-9a100.79,100.79,0,0,0,171.69,62.45,8.85,8.85,0,1,1,12.52,12.52A117.72,117.72,0,0,1,118.52,237.12Z"/><path class="cls-5" d="M196.07,196.13"/><path class="cls-5" d="M170.22,170.27"/><path class="cls-5" d="M170.22,66.84"/><path class="cls-5" d="M196.07,41"/><path class="cls-5" d="M170.22,66.84"/><path class="cls-5" d="M170.22,170.27"/><g class="cls-3"><path class="cls-4" d="M118.52,196A76.88,76.88,0,0,1,63.79,173.3a8.86,8.86,0,1,1,12.52-12.53,59.71,59.71,0,1,0,0-84.44A8.85,8.85,0,0,1,63.79,63.81,77.41,77.41,0,1,1,118.52,196Z"/></g><path class="cls-2" d="M118.52,196A77.42,77.42,0,1,1,173.25,63.81a8.86,8.86,0,1,1-12.52,12.53,59.71,59.71,0,1,0,0,84.44,8.85,8.85,0,0,1,12.52,12.53A76.88,76.88,0,0,1,118.52,196Z"/></g></g></svg>