<?xml version="1.0" encoding="utf-8"?>
<!-- Generator: Adobe Illustrator 21.1.0, SVG Export Plug-In . SVG Version: 6.00 Build 0)  -->
<svg version="1.1" id="Capa_1" xmlns="http://www.w3.org/2000/svg" xmlns:xlink="http://www.w3.org/1999/xlink" x="0px" y="0px"
	 viewBox="0 0 60 60" style="enable-background:new 0 0 60 60;" xml:space="preserve">
<style type="text/css">
	.st0{fill:#FFFFFF;}
</style>
<path class="st0" d="M57,51.8V3.3l-3,3l-6-6l-6,6l-6-6l-6,6l-6-6l-6,6l-6-6l-6,6l-3-3v48.6c-1.7,0.4-3,1.9-3,3.8c0,2.2,1.8,4,4,4h52
	c2.2,0,4-1.8,4-4C60,53.8,58.7,52.3,57,51.8z"/>
<g>
	<path d="M0,55.7c0,2.2,1.8,4,4,4h52c2.2,0,4-1.8,4-4c0-1.9-1.3-3.4-3-3.9V3.3l-3,3l-6-6l-6,6l-6-6l-6,6l-6-6l-6,6l-6-6l-6,6l-3-3
		v48.6C1.3,52.3,0,53.8,0,55.7z M5,8.1l1,1l6-6l6,6l6-6l6,6l6-6l6,6l6-6l6,6l1-1v43.6v3H5v-3V8.1z M3,54v2.7h54V54
		c0.6,0.3,1,1,1,1.7c0,1.1-0.9,2-2,2H4c-1.1,0-2-0.9-2-2C2,55,2.4,54.3,3,54z"/>
	<path d="M16,19.7h15c0.6,0,1-0.4,1-1s-0.4-1-1-1H16c-0.6,0-1,0.4-1,1S15.4,19.7,16,19.7z"/>
	<path d="M11.7,19.4c0.2-0.2,0.3-0.4,0.3-0.7c0-0.3-0.1-0.5-0.3-0.7s-0.5-0.3-0.7-0.3s-0.5,0.1-0.7,0.3c-0.2,0.2-0.3,0.5-0.3,0.7
		c0,0.3,0.1,0.5,0.3,0.7C10.7,19.8,11.3,19.8,11.7,19.4z"/>
	<path d="M11,33.7h15c0.6,0,1-0.4,1-1s-0.4-1-1-1H11c-0.6,0-1,0.4-1,1S10.4,33.7,11,33.7z"/>
	<path d="M11,26.7h10c0.6,0,1-0.4,1-1s-0.4-1-1-1H11c-0.6,0-1,0.4-1,1S10.4,26.7,11,26.7z"/>
	<path d="M32,25.7c0-0.6-0.4-1-1-1h-2c-0.6,0-1,0.4-1,1s0.4,1,1,1h2C31.6,26.7,32,26.3,32,25.7z"/>
	<path d="M15,39.7c0,0.6,0.4,1,1,1h15c0.6,0,1-0.4,1-1s-0.4-1-1-1H16C15.4,38.7,15,39.2,15,39.7z"/>
	<path d="M11.7,40.4c0.2-0.2,0.3-0.4,0.3-0.7s-0.1-0.5-0.3-0.7s-0.5-0.3-0.7-0.3c-0.3,0-0.5,0.1-0.7,0.3S10,39.5,10,39.7
		s0.1,0.5,0.3,0.7C10.7,40.8,11.3,40.8,11.7,40.4z"/>
	<path d="M29.3,32c-0.2,0.2-0.3,0.4-0.3,0.7s0.1,0.5,0.3,0.7c0.4,0.4,1,0.4,1.4,0c0.2-0.2,0.3-0.4,0.3-0.7s-0.1-0.5-0.3-0.7
		c-0.2-0.2-0.5-0.3-0.7-0.3C29.7,31.7,29.5,31.8,29.3,32z"/>
	<path d="M24.3,25c-0.2,0.2-0.3,0.4-0.3,0.7c0,0.3,0.1,0.5,0.3,0.7c0.4,0.4,1,0.4,1.4,0c0.2-0.2,0.3-0.5,0.3-0.7s-0.1-0.5-0.3-0.7
		c-0.2-0.2-0.5-0.3-0.7-0.3S24.5,24.8,24.3,25z"/>
	<path d="M45,20.8v-1.1c0-0.6-0.4-1-1-1s-1,0.4-1,1v1.1c-1.1,0.2-2.1,0.8-2.8,1.7c-0.6,0.7-0.9,1.6-0.8,2.6c0.1,1,0.6,1.9,1.4,2.5
		l2.2,1.7v5.4c-1.2-0.4-2-1.5-2-2.8c0-0.6-0.4-1-1-1s-1,0.4-1,1c0,2.4,1.7,4.4,4,4.9v0.9c0,0.6,0.4,1,1,1s1-0.4,1-1v-0.9
		c1.1-0.2,2.1-0.8,2.8-1.7c0.6-0.7,0.9-1.6,0.8-2.6c-0.1-1-0.6-1.9-1.4-2.5L45,28.3v-5.4c1.2,0.4,2,1.5,2,2.8c0,0.6,0.4,1,1,1
		s1-0.4,1-1C49,23.3,47.3,21.3,45,20.8z M46,31.6c0.3,0.3,0.6,0.7,0.6,1.1s-0.1,0.8-0.3,1.1c-0.3,0.4-0.8,0.7-1.3,0.9v-3.9L46,31.6z
		 M42,26c-0.4-0.3-0.6-0.7-0.6-1.1s0.1-0.8,0.3-1.1c0.3-0.4,0.8-0.7,1.3-0.9v3.9L42,26z"/>
	<circle cx="20" cy="48.7" r="1"/>
	<circle cx="24" cy="48.7" r="1"/>
	<circle cx="16" cy="48.7" r="1"/>
	<circle cx="28" cy="48.7" r="1"/>
	<circle cx="12" cy="48.7" r="1"/>
	<circle cx="40" cy="48.7" r="1"/>
	<circle cx="36" cy="48.7" r="1"/>
	<circle cx="32" cy="48.7" r="1"/>
	<circle cx="8" cy="48.7" r="1"/>
	<circle cx="44" cy="48.7" r="1"/>
	<circle cx="48" cy="48.7" r="1"/>
	<circle cx="52" cy="48.7" r="1"/>
</g>
</svg>
