<?xml version="1.0" encoding="iso-8859-1"?>
<!-- Generator: Adobe Illustrator 16.0.0, SVG Export Plug-In . SVG Version: 6.00 Build 0)  -->
<!DOCTYPE svg PUBLIC "-//W3C//DTD SVG 1.1//EN" "http://www.w3.org/Graphics/SVG/1.1/DTD/svg11.dtd">
<svg version="1.1" id="Capa_1" xmlns="http://www.w3.org/2000/svg" xmlns:xlink="http://www.w3.org/1999/xlink" x="0px" y="0px"
	 width="444.103px" height="444.103px" viewBox="0 0 444.103 444.103" style="enable-background:new 0 0 444.103 444.103;"
	 xml:space="preserve">
<g>
	<path d="M0,219.744v48.098c0,8.301,6.729,15.03,15.03,15.03h40.208c7.529,19.854,26.738,34.011,49.199,34.011
		c22.462,0,41.671-14.155,49.2-34.011h144.848c7.53,19.854,26.738,34.011,49.2,34.011s41.671-14.155,49.2-34.011h15.776
		c18.779,0,27.955-8.109,30.259-15.723c5.828-19.267-11.758-53.979-12.028-54.314c-2.421-3.013-5.909-4.977-9.74-5.485
		l-92.863-16.828c0,0-52.394-50.088-83.468-50.088l-18.642,0.007l-4.748-8.705c-1.519-2.784-4.437-4.516-7.607-4.516h-41.212
		c-3.172,0-6.09,1.732-7.608,4.516l-4.761,8.729l-20.136,0.007c-20.302,0-37.269,15.47-56.915,33.382
		c-9.257,8.44-19.478,17.729-30.751,25.99l-41.981,5.583C4.395,207.361,0,213.037,0,219.744z M327.645,264.278
		c0-11.052,8.99-20.041,20.041-20.041s20.041,8.989,20.041,20.041c0,11.051-8.99,20.041-20.041,20.041
		S327.645,275.327,327.645,264.278z M233.752,233.877h23.4v-23.399h23.398v23.399h-23.398v23.399h-23.4V233.877z M210.352,210.477
		h23.399v23.399h-23.399V210.477z M163.553,210.477h23.399v23.399h23.4v23.398h-23.4v-23.398h-23.399V210.477L163.553,210.477z
		 M84.397,264.278c0-11.052,8.991-20.041,20.041-20.041c11.051,0,20.041,8.989,20.041,20.041c0,11.051-8.99,20.041-20.041,20.041
		C93.388,284.317,84.397,275.327,84.397,264.278z"/>
</g>
<g>
</g>
<g>
</g>
<g>
</g>
<g>
</g>
<g>
</g>
<g>
</g>
<g>
</g>
<g>
</g>
<g>
</g>
<g>
</g>
<g>
</g>
<g>
</g>
<g>
</g>
<g>
</g>
<g>
</g>
</svg>
