<?xml version="1.0" encoding="utf-8"?>
<!-- Generator: Adobe Illustrator 21.1.0, SVG Export Plug-In . SVG Version: 6.00 Build 0)  -->
<svg version="1.1" id="Capa_1" xmlns="http://www.w3.org/2000/svg" xmlns:xlink="http://www.w3.org/1999/xlink" x="0px" y="0px"
	 viewBox="0 0 489.9 489.9" style="enable-background:new 0 0 489.9 489.9;" xml:space="preserve">
<g>
	<g>
		<g>
			<path d="M217.3,386.5c4.3-5.5,68-62.9,77-78.4h165.3c16.8,0,30.3-13.6,30.3-30.3V121.7c0-16.8-13.6-30.3-30.3-30.3H170.2
				c-16.8,0-30.3,13.6-30.3,30.3v50.1v17.9l23.8-2.8c0.8-0.9,1.3-1.5,2.1-2.4v-10v-20c4,1,8.4,1.3,12.9,0.5
				c12.5-2.2,22.6-12.1,24.9-24.6c0.9-4.6,0.6-9.1-0.4-13.2h225.3c-0.3,1.8-0.5,3.7-0.5,5.6c0,17,13.8,30.7,30.7,30.7
				c1.8,0,3.6-0.2,5.4-0.5v93.2c-1.8-0.3-3.6-0.5-5.4-0.5c-17,0-30.7,13.7-30.7,30.7c0,1.9,0.2,3.8,0.5,5.6H208.6l0,0h-63.2
				c7.8-10.6,32.2-22.4,32.2-22.4s64.9-5.8,64.9-38.7c0-0.9,0-1.7-0.1-2.6c0,0-2.1-24.9-73.3-4.3L90,223.2c0,0-42.9,10.3-72.6,38.7
				H8.6c-4.7,0-8.6,3.8-8.6,8.6V363c0,4.4,3.3,8,7.6,8.5c30.8,3.3,145.3,16.1,162.7,23.6c2.8,1.2,5.6,2.2,8.6,2.6
				C188.7,399.4,206.7,400,217.3,386.5z"/>
		</g>
		<g>
			<circle cx="409.6" cy="203.1" r="18.4"/>
		</g>
		<g>
			<g>
				<path d="M312.8,133.3c-31.7,0-58.2,22.2-64.9,51.9c1.7,0.9,3.2,1.8,4.8,2.9c14.3,9.8,16.9,23.1,17.3,27.6
					c0.2,1.8,0.3,3.6,0.3,5.4c0,6.4-1.2,15.1-6,24.1c12.1,12.9,29.4,21,48.5,21c36.7,0,66.5-29.8,66.5-66.5S349.5,133.3,312.8,133.3
					z M318.7,159.9c0,4,0,4.1,4,4.7c3.1,0.5,6,1.4,8.9,2.6c1.6,0.7,2.2,1.8,1.7,3.4c-0.7,2.5-1.4,4.9-2.2,7.4
					c-0.7,2.3-1.5,2.6-3.7,1.6c-4.5-2.2-9.1-3.1-14.1-2.8c-1.3,0.1-2.6,0.2-3.7,0.8c-4.3,1.9-4.9,6.6-1.3,9.5
					c1.8,1.5,3.9,2.5,6.1,3.4c3.8,1.6,7.6,3.1,11.1,5c11.4,6.3,14.5,20.6,6.4,30.4c-2.9,3.5-6.7,5.9-11.1,7.1
					c-1.9,0.5-2.8,1.5-2.7,3.5s0,3.9,0,5.9c0,1.8-0.9,2.7-2.6,2.7c-2.1,0.1-4.2,0.1-6.3,0c-1.9,0-2.7-1.1-2.7-2.9c0-1.4,0-2.9,0-4.3
					c0-3.2-0.1-3.3-3.2-3.8c-3.9-0.6-7.7-1.5-11.3-3.2c-2.8-1.4-3.1-2.1-2.3-5c0.6-2.2,1.2-4.4,1.9-6.5c0.8-2.5,1.5-2.8,3.8-1.6
					c3.9,2.1,8.1,3.2,12.5,3.8c2.8,0.4,5.6,0.1,8.2-1.1c4.9-2.1,5.7-7.8,1.5-11.2c-1.4-1.2-3-2-4.7-2.7c-4.3-1.9-8.8-3.3-12.8-5.7
					c-6.6-3.9-10.7-9.3-10.2-17.3c0.5-9,5.7-14.7,13.9-17.7c3.4-1.2,3.4-1.2,3.5-4.8c0-1.2,0-2.4,0-3.6c0.1-2.7,0.5-3.2,3.2-3.2
					c0.8,0,1.7,0,2.5,0C318.6,154.2,318.6,154.2,318.7,159.9z"/>
			</g>
		</g>
	</g>
</g>
</svg>
