<?xml version="1.0" encoding="utf-8"?>
<!-- Generator: Adobe Illustrator 21.1.0, SVG Export Plug-In . SVG Version: 6.00 Build 0)  -->
<svg version="1.1" id="Layer_1" xmlns="http://www.w3.org/2000/svg" xmlns:xlink="http://www.w3.org/1999/xlink" x="0px" y="0px"
	 viewBox="0 0 148.2 148.2" style="enable-background:new 0 0 148.2 148.2;" xml:space="preserve">
<style type="text/css">
	.st0{opacity:0.1;fill:#FFFFFF;}
	.st1{fill:#23A9E1;}
</style>
<circle class="st0" cx="74.1" cy="74.1" r="71.6"/>
<title>tt</title>
<g id="Layer_2">
	<g id="Layer_1-2">
		<path class="st1" d="M105,58.2c0,0.7,0,1.4,0,2.1c0,21-16,45.3-45.3,45.3c-8.7,0-17.1-2.5-24.4-7.2c8.4,1,16.9-1.4,23.6-6.6
			C52,91.7,46.1,87.3,44,80.8c1,0.2,2,0.3,3,0.3c1.4,0,2.8-0.2,4.2-0.6c-7.4-1.5-12.8-8-12.8-15.6c0-0.1,0-0.1,0-0.2
			c2.2,1.2,4.7,1.9,7.2,2c-7-4.7-9.2-14-4.9-21.3c8.1,9.9,20,16,32.8,16.6c-2-8.6,3.3-17.1,11.9-19.2c5.6-1.3,11.4,0.5,15.3,4.6
			c3.6-0.7,7-2,10.1-3.9c-1.2,3.7-3.7,6.8-7,8.8c3.2-0.4,6.2-1.2,9.2-2.5C110.8,53.2,108.1,56,105,58.2z"/>
		<path class="st1" d="M74.1,148.2C33.2,148.2,0,115,0,74.1S33.2,0,74.1,0s74.1,33.2,74.1,74.1l0,0C148.1,115,115,148.1,74.1,148.2z
			 M74.1,3.9C35.3,3.9,3.9,35.3,3.9,74.1s31.4,70.1,70.1,70.1s70.1-31.4,70.1-70.1l0,0C144.2,35.4,112.8,4,74.1,3.9z"/>
	</g>
</g>
</svg>
