<?xml version="1.0" encoding="iso-8859-1"?>
<!-- Generator: Adobe Illustrator 19.0.0, SVG Export Plug-In . SVG Version: 6.00 Build 0)  -->
<svg version="1.1" id="Layer_1" xmlns="http://www.w3.org/2000/svg" xmlns:xlink="http://www.w3.org/1999/xlink" x="0px" y="0px"
	 viewBox="0 0 512 512" style="enable-background:new 0 0 512 512;" xml:space="preserve">
<g>
	<g>
		<path d="M508.737,350.529v-8.101c0-47.026-15.621-83.266-46.429-107.712c-28.245-22.413-67.86-33.777-117.742-33.777
			c-49.882,0-89.497,11.365-117.742,33.777c-30.808,24.446-46.429,60.686-46.429,107.712v8.101h21.601v80.465h-21.601v40.503
			c0,22.334,18.169,40.503,40.503,40.503h247.336c22.334,0,40.503-18.169,40.503-40.503v-40.503h-21.601v-80.465H508.737z
			 M492.535,447.196v24.302c0,13.4-10.901,24.302-24.302,24.302H220.898c-13.4,0-24.302-10.901-24.302-24.302v-24.302h5.4h117.188
			v-16.201H218.197v-16.201h96.754l85.22,61.359l47.723-61.359h23.04v16.201h-22.141v16.201h38.343H492.535z M292.45,398.593
			h-74.253v-48.063h252.737v48.063h-10.439H292.45z M427.371,414.794l-30.402,39.088l-54.29-39.088H427.371z M201.998,334.328
			h-5.224c4.496-101.719,93.932-117.188,147.794-117.188c53.862,0,143.297,15.469,147.794,117.188h-5.224H201.998z"/>
	</g>
</g>
<g>
	<g>
		<path d="M434.329,368.392c-3.235,3.044-4.689,4.279-8.223,4.279c-3.533,0-4.987-1.236-8.221-4.279
			c-3.893-3.664-9.226-8.682-19.325-8.682c-10.099,0-15.43,5.018-19.324,8.683c-3.234,3.044-4.688,4.278-8.219,4.278
			c-3.532,0-4.984-1.236-8.218-4.278c-3.893-3.665-9.225-8.683-19.322-8.683s-15.43,5.018-19.322,8.683
			c-3.234,3.044-4.686,4.278-8.218,4.278c-3.533,0-4.986-1.236-8.219-4.278c-3.893-3.665-9.225-8.683-19.322-8.683
			c-10.098,0-15.429,5.018-19.321,8.683c-3.233,3.043-4.685,4.278-8.216,4.278c-3.531,0-4.983-1.236-8.216-4.278
			c-3.893-3.665-9.224-8.683-19.321-8.683v16.201c3.531,0,4.983,1.236,8.216,4.278c3.893,3.664,9.223,8.683,19.32,8.683
			c10.098,0,15.429-5.018,19.321-8.683c3.233-3.044,4.685-4.278,8.217-4.278s4.984,1.236,8.218,4.278
			c3.893,3.665,9.225,8.683,19.322,8.683s15.429-5.018,19.323-8.683c3.234-3.044,4.686-4.278,8.219-4.278s4.986,1.236,8.219,4.278
			c3.893,3.665,9.225,8.683,19.322,8.683c10.099,0,15.43-5.018,19.324-8.683c3.234-3.044,4.688-4.278,8.219-4.278
			c3.533,0,4.987,1.236,8.221,4.279c3.893,3.664,9.226,8.682,19.325,8.682s15.431-5.018,19.325-8.682
			c3.235-3.044,4.689-4.279,8.221-4.279V359.71C443.555,359.71,438.223,364.728,434.329,368.392z"/>
	</g>
</g>
<g>
	<g>
		<rect x="369.406" y="236.579" width="16.201" height="16.201"/>
	</g>
</g>
<g>
	<g>
		<rect x="304.602" y="236.579" width="16.201" height="16.201"/>
	</g>
</g>
<g>
	<g>
		<rect x="337.004" y="252.78" width="16.201" height="16.201"/>
	</g>
</g>
<g>
	<g>
		<path d="M163.654,118.854V43.511l77.309-28.297L235.395,0l-87.942,32.187v86.667H3.263v70.205h23.49L60.776,512h110.978v-16.201
			H75.36l-32.316-306.74h229.156h30.782v-70.205H163.654z M286.782,172.858h-14.581H25.047h-5.583v-37.802h267.318V172.858z"/>
	</g>
</g>
<g>
	<g>
		<rect x="63.835" y="211.176" transform="matrix(0.9969 -0.0782 0.0782 0.9969 -16.9275 6.297)" width="16.2" height="16.2"/>
	</g>
</g>
<g>
	<g>
		<rect x="66.386" y="243.471" transform="matrix(0.9969 -0.0782 0.0782 0.9969 -19.4453 6.5954)" width="16.2" height="16.2"/>
	</g>
</g>
<g>
	<g>
		<rect x="68.921" y="275.777" transform="matrix(0.9969 -0.0782 0.0782 0.9969 -21.9649 6.8929)" width="16.2" height="16.2"/>
	</g>
</g>
<g>
</g>
<g>
</g>
<g>
</g>
<g>
</g>
<g>
</g>
<g>
</g>
<g>
</g>
<g>
</g>
<g>
</g>
<g>
</g>
<g>
</g>
<g>
</g>
<g>
</g>
<g>
</g>
<g>
</g>
</svg>
